<?xml version="1.0" encoding="UTF-8"?>
<svg id="Layer_1" data-name="Layer 1" xmlns="http://www.w3.org/2000/svg" viewBox="0 0 986.09 272.66">
  <defs>
    <style>
      .cls-1 {
        stroke: #000;
        stroke-miterlimit: 10;
      }
    </style>
  </defs>
  <path class="cls-1" d="M457.47,78.28c2.35,2.43,6.81-.52,16-2,8.59-1.39,9.86,.35,25-1,8.92-.8,12.11-1.72,13-4,.77-1.97-.21-4.84-2-6-1.53-.98-3.03-.33-6,0-4.19,.47-8.43-.04-11-1-3.08-1.15-4.93-3.39-8-8-6.95-10.44-7.68-14.35-11-19-5.5-7.69-13.37-10.79-19-13-11.73-4.61-25.56-4.97-36-2-3.89,1.11-7.6,1.74-15,3-3.53,.6-6.48,1.03-10,0-.72-.21-3.2-.99-7-4-5.75-4.56-5.86-7.36-10-11-3.38-2.97-6.59-3.98-13-6-5.87-1.85-10.2-2.26-18-3-8.77-.83-13.25-1.22-18,0-5.32,1.37-9.11,3.78-11,5-3.18,2.05-5.78,4.7-11,10-3.97,4.03-8.64,7.45-12,12-.71,.97-2.25,3.14-5,4-2.33,.73-4.41,.17-5,0-3.7-1.05-4.72-3.84-8-7-.75-.72-1.34-1.2-10-6-7.82-4.33-11.72-6.5-13-7-4.28-1.68-8.25-2.14-16-3-7.47-.83-14.15-1.56-23-1-6.42,.41-10.74,1.3-19,3-7.63,1.57-15.76,3.28-26,7-8.4,3.05-13.55,4.92-20,9-7.32,4.62-8.64,7.25-20,15-2.89,1.97-6.25,4.27-11,7-11.48,6.61-13.79,5.83-21,11-5.41,3.88-9.18,7.95-12,11-2.33,2.52-5.14,5.58-8,10-3.15,4.87-4.43,8.41-6,12-3.24,7.42-3.67,5.84-13,22-5.17,8.96-11.74,14.28-14,21-.22,.64-.82,2.55-2,5-1.65,3.43-3,5-5,8-2.43,3.65-4.37,6.85-6,11-.74,1.88-1.16,4.59-2,10-1.01,6.5-.77,8.04-2,12-.6,1.94-1.34,4.33-3,7-2.51,4.05-4.56,4.6-9,9-4.54,4.5-7.18,8.65-8,10-3.37,5.5-4.54,9.88-5,12-.76,3.46-1.73,7.89,0,9,1.26,.8,3.32-.55,11-6,5.17-3.67,12.04-8.6,14-10,6.61-4.7,8.64-5.02,10.51-6.52,.79-.63,1.27-1.23,1.49-1.48,2.08-2.35,4.82-4.63,11-10,7.91-6.87,6.83-6.09,8-7,5.2-4.05,15.19-11.74,20-9,2.47,1.41,2.74,5.75,3,10,.22,3.56,.39,6.37-1,9-3,5.67-9.48,3.27-19,10-4.16,2.94-3.04,3.48-9,8-5.72,4.34-8.52,5.17-9,8-.49,2.88,1.82,5.45,5,9,4.04,4.51,6.96,7.76,11,8,3.58,.21,4.51-2.15,15-9,8.69-5.67,10.95-5.93,12-6,4.74-.3,5.47,2.08,12,2,4.67-.06,6.27-1.3,9,0,3.07,1.46,4.42,4.64,5,6,1.17,2.74,1.06,4.74,1,10-.14,11.66,.28,9.06,0,15-.44,9.51-1.27,10.71,0,12,2.83,2.87,7.83-2.21,20-2,5.79,.1,7.96,1.31,13,0,3.72-.96,3.69-1.92,9-4,8.19-3.21,11.99-2.38,13-5,.86-2.24-.93-5.39-3-7-2.92-2.28-5.15-.53-12-2-1.56-.34-.41-.2-9-3-5.65-1.84-6.41-1.98-8-3-.55-.35-1.13-.76-6-5-2.54-3.6-2.52-5.2-2-6,1.49-2.3,8.02,.77,19,2,8.1,.91,14.38,.34,18,0,9.98-.95,17.33-3.41,22-5,9.32-3.18,16.68-5.69,24-12,5.6-4.83,4.74-6.34,11-12,1.34-1.21,8.17-7.29,19-12,4.75-2.07,17.53-7.03,34-6,5.35,.33,9.84,1.22,13,2,6.36,1.57,11,3.74,20,8,4.17,1.97,2.55,1.35,19,10,10.79,5.68,11.74,6.08,13,8,3.46,5.27,1.14,9.49,6,17,.9,1.39,3.6,5.47,6,5,1.4-.27,1.67-1.89,4-4,1.73-1.56,3.37-2.28,5-3,4.44-1.95,7.91-1.07,19-1,6.71,.04,7.84-.26,9-1,3.29-2.1,2.45-4.89,6-10,3.51-5.05,8.26-7.96,10-9,4.98-2.98,7.46-2.68,10-6,1.86-2.44,3.09-5.96,2-7-.99-.94-3.4,.62-9,3-3.44,1.46-7.07,3-11,4-7.63,1.95-9.99,.24-16,3-2.68,1.23-2.99,1.93-5,3-8.75,4.65-18.69,.8-21,0-2.87-1-3.29-1.57-12-7-15.62-9.73-15.84-8.87-21-13-3.78-3.03-7.19-6.68-14-14-8.54-9.17-9.48-11.36-10-13-2.07-6.54,1.61-7.71,1-18-.57-9.57-4.07-14.68-1-18,.8-.87,1.36-.86,5-2,5.78-1.81,11.95-3.34,17-7,3.46-2.51,9.36-6.86,15-15,9.85-14.2,11.36-29.01,12-36,.89-9.81,.25-21.85,.05-25.14-.01-.1-.2-.48-.05-.86,.6-1.61,5.78-1.03,6-1,5.31,.63,7.83,4.71,13,9,2.07,1.72,6.05,3.81,14,8,5.17,2.72,11.06,5.82,19,9,19.67,7.87,21.19,7.68,22,7,2.52-2.12-.62-6.08-1-22-.03-1.23-.01-1.11,0-14,1.05-5.04,1.41-5.7,2-6,.89-.46,2.32-.09,5,2,4.71,3.67,7.1,7.85,9,11,3.98,6.58,5.97,9.87,8,12,6.32,6.62,11,5.75,13,11,1.81,4.74-1.11,7.82,1,10Z"/>
  <g>
    <path d="M472.17,134.41l2.16-2.4-1.54,8.54h-2.69l.38-8.54h26.21l.38,8.54h-2.69l-1.54-8.54,2.16,2.4h-22.83Zm11.9,27.12l6.72,.72v1.92h-14.4v-1.92l6.72-.72h.96Zm-2.64-14.64c0-4.94,0-9.94-.14-14.88h4.61c-.14,4.85-.14,9.84-.14,14.88v2.4c0,4.94,0,9.94,.14,14.88h-4.61c.14-4.85,.14-9.84,.14-14.88v-2.4Z"/>
    <path d="M503.22,132.97l-3.98-.48v-1.68l7.2-2.16,.67,.38-.19,6.82v10.18l.14,.62v7.44c0,2.98,.05,7.92,.14,10.08h-4.13c.1-2.16,.14-7.1,.14-10.08v-21.12h0Zm7.3,29.52v1.68h-11.04v-1.68l5.28-.96h.96l4.8,.96Zm11.33-12.82v4.42c0,3.07,.05,7.92,.14,10.08h-4.13c.1-2.16,.14-7.01,.14-10.08v-4.03c0-4.46-1.15-5.9-4.03-5.9-2.4,0-4.37,.86-7.1,3.31h-1.01v-2.16h2.45l-2.16,.86c2.26-3.02,6.19-5.38,9.6-5.38,4.13,0,6.1,2.55,6.1,8.88Zm-1.3,11.86l4.8,.96v1.68h-11.04v-1.68l5.28-.96h.96Z"/>
    <path d="M548.87,149.96c0,1.1-.14,2.06-.34,2.69h-17.71v-2.02h11.42c2.3,0,2.83-1.1,2.83-2.45,0-2.74-2.3-5.23-5.33-5.23s-6.62,2.59-6.62,9.46c0,6.1,3.07,9.36,7.87,9.36,3.07,0,4.99-1.39,6.72-3.41l1.1,.86c-1.73,3.41-4.8,5.57-9.17,5.57-6.43,0-10.61-4.46-10.61-11.76s4.99-12.24,10.95-12.24c4.96,0,8.89,3.36,8.89,9.17Z"/>
  </g>
  <g>
    <path d="M508.81,232.44c-4.97,2.59-9.86,4.25-15.84,4.25-14.4,0-24.19-10.73-24.19-25.2s9.87-25.2,24.48-25.2c5.98,0,10.44,1.08,14.47,3.46l.29,10.44h-4.39l-1.8-10.66,4.46,1.44v4.11c-3.89-3.6-7.85-5.19-12.46-5.19-10.08,0-17.5,7.85-17.5,21.6s6.77,21.53,18,21.53c4.1,0,7.13-.94,11.23-2.95l-3.24,3.38v-4.18c0-5.47-.07-11.09-.22-16.56h6.91c-.14,5.4-.22,10.95-.22,16.56v3.17h.02Zm-14.19-16.85v-2.88h18.72v2.88l-7.92,.72h-1.44l-9.36-.72Z"/>
    <path d="M529.54,216.74c3.02-1.08,7.56-2.38,11.16-3.02v2.59c-3.24,.65-7.49,2.02-9.65,2.88-6.48,2.52-7.2,5.26-7.2,7.35,0,3.82,2.52,5.33,5.83,5.33,2.52,0,3.96-.94,8.5-4.18l1.44-1.08,1.01,1.51-2.09,2.09c-4.32,4.32-6.77,6.34-11.16,6.34-5.26,0-9.65-3.02-9.65-9,0-4.04,2.16-7.28,11.81-10.81Zm8.28,12.24v-16.42c0-7.06-2.02-8.78-6.77-8.78-1.66,0-3.82,.21-6.48,1.29l2.88-2.23-1.87,6.19c-.65,2.09-1.73,3.24-3.67,3.24s-3.1-1.08-3.24-2.88c1.37-5.47,6.7-8.86,13.9-8.86s11.02,3.38,11.02,12.46v15.26c0,3.24,1.01,4.39,2.66,4.39,1.22,0,2.02-.65,2.81-1.58l1.44,1.58c-1.73,2.74-3.67,3.67-6.12,3.67-3.96,.02-6.56-2.86-6.56-7.33Z"/>
    <path d="M563.81,182.32l1.01,.58-.29,10.22v27.36c0,5.04,.07,10.08,.22,15.12h-6.19c.14-5.04,.22-10.08,.22-15.12v-31.68l-5.98-.72v-2.52l11.01-3.24Zm6.7,50.77v2.52h-17.71v-2.52l8.14-1.44h1.44l8.13,1.44Z"/>
    <path d="M585.12,182.32l1.01,.58-.29,10.22v27.36c0,5.04,.07,10.08,.22,15.12h-6.19c.14-5.04,.22-10.08,.22-15.12v-31.68l-5.98-.72v-2.52l11.01-3.24Zm6.7,50.77v2.52h-17.71v-2.52l8.14-1.44h1.44l8.13,1.44Z"/>
    <path d="M596.93,218.68c0-11.95,8.14-18.14,16.42-18.14s16.42,6.19,16.42,18.14-8.28,17.86-16.42,17.86-16.42-5.9-16.42-17.86Zm26.36,0c0-9.65-3.67-14.9-9.94-14.9s-9.94,5.26-9.94,14.9,3.53,14.62,9.94,14.62,9.94-4.97,9.94-14.62Z"/>
    <path d="M654.03,250.37v2.52h-18.43v-2.52l8.14-1.44h1.44l8.85,1.44Zm-12.39-33.27c0-3.96-.07-6.19-.22-9.07l-5.76-.65v-2.52l9.79-4.32,1.08,.72,.58,6.12,.29,.14v22.46l-.22,.43v7.2c0,5.04,.07,10.23,.22,15.27h-5.98c.14-5.04,.22-10.08,.22-15.12v-20.66Zm14.69-12.6c-2.66,0-6.26,1.3-11.52,6.41l-.65-1.3c4.18-6.34,8.86-9.07,13.75-9.07,7.63,0,13.68,6.77,13.68,17.86s-6.34,18.14-14.76,18.14c-4.39,0-8.86-2.02-12.67-9.5l.65-1.15c3.74,4.75,7.2,6.7,10.73,6.7,5.47,0,9.94-4.25,9.94-13.54,0-9.29-3.82-14.55-9.15-14.55Z"/>
    <path d="M682.9,235.61c.14-3.24,.22-10.66,.22-15.12v-3.38c0-3.96-.07-6.19-.22-9.07l-5.9-.65v-2.52l10.87-4.32,1.08,.72-.22,9.72v9.5c0,4.46,.07,11.88,.22,15.12h-6.05Zm11.09-2.52v2.52h-16.56v-2.52l7.92-1.44h1.44l7.2,1.44Zm-12.89-45.22c0-2.74,2.09-4.54,4.75-4.54s4.75,1.8,4.75,4.54-2.09,4.54-4.75,4.54c-2.66-.01-4.75-1.88-4.75-4.54Z"/>
    <path d="M704.57,235.61c.14-3.24,.22-10.66,.22-15.12v-3.38c0-3.96-.07-6.19-.22-9.07l-5.76-.65v-2.52l9.79-4.32,1.08,.72,.86,8.35v10.87c0,4.46,.07,11.88,.22,15.12h-6.19Zm11.23-2.52v2.52h-16.56v-2.52l7.92-1.44h1.44l7.2,1.44Zm16.64-19.23v6.62c0,4.61,.07,11.88,.22,15.12h-6.19c.14-3.24,.22-10.51,.22-15.12v-6.05c0-6.7-1.73-8.86-6.05-8.86-3.6,0-6.55,1.44-10.66,4.97h-1.51v-3.24h3.67l-3.1,1.3c3.38-4.54,9.15-8.06,14.26-8.06,6.18,0,9.14,3.82,9.14,13.32Zm-1.95,17.79l7.2,1.44v2.52h-16.56v-2.52l7.92-1.44h1.44Z"/>
    <path d="M769.8,242.23c0-3.24-2.02-5.69-7.27-5.69h-8.5c-1.22,0-2.52-.07-3.6-.21v-.22c-3.67-.79-5.54-2.66-5.54-5.69,0-2.52,1.66-5.26,6.55-9.5l1.58,1.08c-2.16,2.3-3.1,3.89-3.1,6.05,0,1.94,.79,3.24,4.18,3.24h9.5c7.7,0,11.38,3.38,11.38,9.22,0,6.19-5.9,12.38-17.57,12.38-10.37,0-14.91-3.6-14.91-8.79,0-3.53,2.23-6.19,9.5-9.29l.36,.43c-2.88,2.81-4.03,4.97-4.03,7.78,0,4.75,3.67,6.62,9.29,6.62,7.94,0,12.18-3.31,12.18-7.41Zm-12.67-41.69c7.34,0,12.82,3.89,12.82,11.81s-5.62,11.81-12.89,11.81-12.89-3.89-12.89-11.81c0-7.63,5.62-11.81,12.96-11.81Zm-7.34,11.88c0,5.26,2.59,8.86,7.06,8.86s7.49-3.82,7.49-9.15-2.59-8.71-7.13-8.71c-4.62,0-7.42,3.74-7.42,9Zm24.48-11.88l1.08,.72v4.46h-10.58v-1.94l9.5-3.24Z"/>
    <path d="M837.34,232.44c-4.97,2.59-9.87,4.25-15.84,4.25-14.4,0-24.19-10.73-24.19-25.2s9.86-25.2,24.48-25.2c5.98,0,10.44,1.08,14.47,3.46l.29,10.44h-4.39l-1.8-10.66,4.46,1.44v4.11c-3.89-3.6-7.85-5.19-12.46-5.19-10.08,0-17.5,7.85-17.5,21.6s6.77,21.53,18,21.53c4.1,0,7.13-.94,11.23-2.95l-3.24,3.38v-4.18c0-5.47-.07-11.09-.22-16.56h6.91c-.14,5.4-.22,10.95-.22,16.56v3.17h.02Zm-14.18-16.85v-2.88h18.72v2.88l-7.92,.72h-1.44l-9.36-.72Z"/>
    <path d="M846.26,218.68c0-11.95,8.14-18.14,16.42-18.14s16.42,6.19,16.42,18.14-8.28,17.86-16.42,17.86-16.42-5.9-16.42-17.86Zm26.36,0c0-9.65-3.67-14.9-9.94-14.9s-9.94,5.26-9.94,14.9,3.53,14.62,9.94,14.62,9.94-4.97,9.94-14.62Z"/>
    <path d="M885.72,218.68c0-11.95,8.14-18.14,16.42-18.14s16.42,6.19,16.42,18.14-8.28,17.86-16.42,17.86-16.42-5.9-16.42-17.86Zm26.35,0c0-9.65-3.67-14.9-9.94-14.9s-9.94,5.26-9.94,14.9,3.53,14.62,9.94,14.62,9.94-4.97,9.94-14.62Z"/>
    <path d="M925.61,233.81l-.29-7.85h3.82l1.94,8.5-3.53-1.66v-2.45c2.52,1.94,5.26,2.95,8.86,2.95,5.54,0,8.14-2.23,8.14-5.54,0-3.1-2.16-4.68-6.7-6.34l-3.31-1.22c-5.26-1.94-8.71-4.75-8.71-9.65,0-5.18,4.39-10.01,12.39-10.01,3.89,0,6.91,1.08,10.01,2.95l-.29,7.27h-3.6l-1.44-7.27,2.59,1.15v1.87c-2.3-1.8-4.75-2.74-7.34-2.74-4.46,0-6.77,1.94-6.77,4.97,0,3.24,1.8,4.46,6.7,6.26l2.16,.79c7.2,2.66,9.94,6.05,9.94,10.51,0,5.33-4.68,10.22-13.9,10.22-4.05,.02-7.14-.91-10.67-2.71Z"/>
    <path d="M986.09,214.29c0,1.66-.22,3.1-.5,4.03h-26.57v-3.02h17.14c3.46,0,4.25-1.66,4.25-3.67,0-4.1-3.46-7.85-7.99-7.85s-9.94,3.89-9.94,14.18c0,9.15,4.61,14.04,11.81,14.04,4.61,0,7.49-2.09,10.08-5.11l1.66,1.3c-2.59,5.11-7.2,8.35-13.75,8.35-9.65,0-15.91-6.7-15.91-17.64s7.49-18.36,16.42-18.36c7.39,0,13.3,5.04,13.3,13.75Z"/>
  </g>
</svg>